<svg width="40" height="40" viewBox="0 0 40 40" fill="none" xmlns="http://www.w3.org/2000/svg">
<circle cx="20" cy="20" r="20" fill="#2B7AF1"/>
<path d="M22.7063 23.3174L24.1063 21.9174C24.2948 21.7311 24.5334 21.6037 24.793 21.5504C25.0526 21.4972 25.3221 21.5204 25.5688 21.6174L27.275 22.2986C27.5243 22.3998 27.738 22.5725 27.8893 22.7949C28.0405 23.0174 28.1226 23.2796 28.125 23.5486V26.6736C28.1236 26.8566 28.0851 27.0374 28.0119 27.2051C27.9388 27.3729 27.8324 27.524 27.6993 27.6496C27.5662 27.7751 27.409 27.8724 27.2373 27.9356C27.0655 27.9988 26.8828 28.0266 26.7 28.0174C14.7438 27.2736 12.3313 17.1486 11.875 13.2736C11.8538 13.0833 11.8732 12.8907 11.9318 12.7084C11.9904 12.5262 12.0869 12.3584 12.2151 12.2161C12.3432 12.0738 12.5 11.9602 12.6751 11.8829C12.8503 11.8056 13.0398 11.7662 13.2313 11.7674H16.25C16.5194 11.7682 16.7824 11.8495 17.0051 12.001C17.2279 12.1525 17.4003 12.3671 17.5 12.6174L18.1813 14.3236C18.2814 14.5693 18.307 14.839 18.2547 15.0991C18.2025 15.3592 18.0748 15.5982 17.8875 15.7861L16.4875 17.1861C16.4875 17.1861 17.2938 22.6424 22.7063 23.3174Z" fill="white"/>
</svg>
