<svg width="171" height="88" viewBox="0 0 171 88" fill="none" xmlns="http://www.w3.org/2000/svg">
<g clip-path="url(#clip0_1_2275)">
<path d="M77.2497 26.2012H76.4861L69.3266 6.92538C68.6997 5.23773 67.0691 4.10382 65.2688 4.10382H14.7311C12.9309 4.10382 11.3002 5.23773 10.6733 6.92538L3.51391 26.2012H2.75031C1.23375 26.2012 0 27.4349 0 28.9515V31.1612C0 32.6777 1.23375 33.9115 2.75031 33.9115H3.15688V59.5974C3.15688 60.2446 3.68141 60.7693 4.32875 60.7693C4.97609 60.7693 5.50062 60.2446 5.50062 59.5974V33.9115H23.9006C24.9303 33.9115 25.8984 33.5105 26.6267 32.7823L40 19.4087L53.3736 32.7823C54.1017 33.5104 55.0698 33.9113 56.0995 33.9113H74.4995V37.0182C74.4995 37.6654 75.0241 38.1901 75.6714 38.1901C76.3187 38.1901 76.8433 37.6654 76.8433 37.0182V33.9113H77.2498C78.7663 33.9113 80.0002 32.6776 80.0002 31.161V28.9513C80 27.4349 78.7663 26.2012 77.2497 26.2012ZM12.8703 7.74132C13.1578 6.96741 13.9056 6.44757 14.7311 6.44757H65.2688C66.0942 6.44757 66.842 6.96757 67.1295 7.74132L73.9859 26.2012H57.6964L42.7259 11.2309C41.9978 10.5027 41.0298 10.1016 40 10.1016C38.9702 10.1016 38.0022 10.5026 37.2741 11.2309L22.3036 26.2012H6.01391L12.8703 7.74132ZM77.6562 31.1612C77.6562 31.3854 77.4739 31.5677 77.2497 31.5677H56.0995C55.6958 31.5677 55.3161 31.4105 55.0308 31.1251L40.8286 16.9229C40.6088 16.703 40.3108 16.5796 39.9998 16.5796C39.6889 16.5796 39.3911 16.703 39.1711 16.9229L24.9691 31.1251C24.6836 31.4105 24.3039 31.5677 23.9002 31.5677H2.75031C2.52609 31.5677 2.34375 31.3854 2.34375 31.1612V28.9515C2.34375 28.7273 2.52609 28.5449 2.75031 28.5449H22.7891C23.0998 28.5449 23.3978 28.4215 23.6178 28.2016L38.9316 12.888C39.2169 12.6026 39.5964 12.4454 40.0002 12.4454C40.4039 12.4454 40.7834 12.6026 41.0687 12.888L56.3825 28.2016C56.6023 28.4215 56.9003 28.5449 57.2113 28.5449H77.25C77.4742 28.5449 77.6566 28.7273 77.6566 28.9515V31.1612H77.6562Z" fill="#2B7AF1"/>
<path d="M70.4626 66.426C71.11 66.426 71.6345 65.9013 71.6345 65.2541V44.4196C71.6345 43.7724 71.11 43.2477 70.4626 43.2477H54.6787C54.0314 43.2477 53.5068 43.7724 53.5068 44.4196V65.2541C53.5068 65.9013 54.0314 66.426 54.6787 66.426H70.4626ZM69.2907 59.0315H63.7425V53.4834H69.2907V59.0315ZM61.3987 59.0315H55.8506V53.4834H61.3987V59.0315ZM69.2907 64.0823H55.8506V61.3752H69.2907V64.0823ZM69.2907 51.1394H63.7425V45.5913H69.2907V51.1394ZM61.3987 45.5915V51.1396H55.8506V45.5915H61.3987Z" fill="#2B7AF1"/>
<path d="M25.321 66.426C25.9684 66.426 26.4929 65.9013 26.4929 65.2541V44.4196C26.4929 43.7724 25.9684 43.2477 25.321 43.2477H9.53711C8.88977 43.2477 8.36523 43.7724 8.36523 44.4196V65.2541C8.36523 65.9013 8.88977 66.426 9.53711 66.426H25.321ZM24.1491 59.0315H18.601V53.4834H24.1491V59.0315ZM16.2573 59.0315H10.709V53.4834H16.2573V59.0315ZM24.1491 64.0823H10.709V61.3752H24.1491V64.0823ZM24.1491 51.1394H18.601V45.5913H24.1491V51.1394ZM16.2573 45.5915V51.1396H10.709V45.5915H16.2573Z" fill="#2B7AF1"/>
<path d="M43.7882 48.2985H36.2119C35.5646 48.2985 35.04 48.8232 35.04 49.4704V54.5212C35.04 55.1684 35.5646 55.6931 36.2119 55.6931H43.7882C44.4355 55.6931 44.96 55.1684 44.96 54.5212V49.4704C44.96 48.8232 44.4355 48.2985 43.7882 48.2985ZM42.6163 53.3493H37.3838V50.6423H42.6163V53.3493Z" fill="url(#paint0_linear_1_2275)"/>
<path d="M46.2226 33.5287C46.2226 30.0977 43.4312 27.3061 40 27.3061C36.5687 27.3061 33.7773 30.0977 33.7773 33.5287C33.7773 36.9598 36.5687 39.7516 40 39.7516C43.4312 39.7516 46.2226 36.96 46.2226 33.5287ZM36.1211 33.5287C36.1211 31.39 37.8612 29.6498 40 29.6498C42.1387 29.6498 43.8789 31.39 43.8789 33.5287C43.8789 35.6675 42.1387 37.4078 40 37.4078C37.8612 37.4078 36.1211 35.6677 36.1211 33.5287Z" fill="url(#paint1_linear_1_2275)"/>
<path d="M78.8281 68.1859H76.8433V42.5C76.8433 41.8528 76.3187 41.3281 75.6714 41.3281C75.0241 41.3281 74.4995 41.8528 74.4995 42.5V68.1859H50.0108V44.4195C50.0108 43.7723 49.4863 43.2477 48.8389 43.2477H31.1611C30.5138 43.2477 29.9892 43.7723 29.9892 44.4195V68.1859H5.50047V65.0791C5.50047 64.4319 4.97594 63.9072 4.32859 63.9072C3.68125 63.9072 3.15672 64.4319 3.15672 65.0791V68.1859H1.17188C0.524531 68.1859 0 68.7106 0 69.3578V74.7244C0 75.3716 0.524531 75.8962 1.17188 75.8962H78.8281C79.4755 75.8962 80 75.3716 80 74.7244V69.3578C80 68.7106 79.4755 68.1859 78.8281 68.1859ZM32.333 59.6389H34.0023C34.6497 59.6389 35.1742 59.1142 35.1742 58.467C35.1742 57.8198 34.6497 57.2952 34.0023 57.2952H32.333V45.5914H47.6672V68.1859H32.333V59.6389ZM77.6562 73.5525H2.34375V70.5297H77.6562V73.5525Z" fill="#2B7AF1"/>
</g>
<path d="M110.44 9.296C114.064 9.296 116.92 10.364 119.008 12.5C121.096 14.636 122.14 17.708 122.14 21.716C122.14 24.596 121.576 27.08 120.448 29.168C119.344 31.232 117.772 32.804 115.732 33.884C113.716 34.964 111.376 35.504 108.712 35.504C107.296 35.504 105.94 35.336 104.644 35C103.348 34.688 102.244 34.244 101.332 33.668L103.924 28.556C105.148 29.42 106.696 29.852 108.568 29.852C110.368 29.852 111.82 29.36 112.924 28.376C114.052 27.368 114.712 25.916 114.904 24.02C113.464 25.244 111.58 25.856 109.252 25.856C107.668 25.856 106.216 25.532 104.896 24.884C103.576 24.212 102.52 23.276 101.728 22.076C100.96 20.852 100.576 19.46 100.576 17.9C100.576 16.196 101.008 14.696 101.872 13.4C102.76 12.08 103.948 11.072 105.436 10.376C106.948 9.656 108.616 9.296 110.44 9.296ZM110.944 20.744C111.976 20.744 112.816 20.456 113.464 19.88C114.112 19.28 114.436 18.5 114.436 17.54C114.436 16.604 114.112 15.848 113.464 15.272C112.84 14.672 111.988 14.372 110.908 14.372C109.9 14.372 109.072 14.66 108.424 15.236C107.8 15.812 107.488 16.592 107.488 17.576C107.488 18.536 107.8 19.304 108.424 19.88C109.072 20.456 109.912 20.744 110.944 20.744Z" fill="#2B7AF1"/>
<path d="M101.26 74H102.583V67.52L108.955 74H110.683L104.149 67.295L110.188 61.04H108.496L102.583 67.16V61.04H101.26V74ZM111.939 74H116.466C116.712 74 116.973 73.991 117.249 73.973C117.531 73.955 117.792 73.913 118.032 73.847C118.566 73.691 118.992 73.403 119.31 72.983C119.628 72.563 119.787 72.02 119.787 71.354C119.787 70.394 119.433 69.701 118.725 69.275C118.509 69.143 118.302 69.059 118.104 69.023C118.326 68.927 118.53 68.777 118.716 68.573C118.908 68.375 119.055 68.141 119.157 67.871C119.265 67.595 119.319 67.283 119.319 66.935C119.319 66.311 119.151 65.78 118.815 65.342C118.485 64.898 118.047 64.601 117.501 64.451C117.249 64.385 116.976 64.34 116.682 64.316C116.394 64.292 116.148 64.28 115.944 64.28H111.939V74ZM113.271 68.573V65.414H115.809C115.875 65.414 116.031 65.42 116.277 65.432C116.529 65.444 116.763 65.489 116.979 65.567C117.297 65.669 117.534 65.852 117.69 66.116C117.852 66.374 117.933 66.671 117.933 67.007C117.933 67.319 117.858 67.607 117.708 67.871C117.564 68.135 117.336 68.321 117.024 68.429C116.874 68.483 116.703 68.522 116.511 68.546C116.319 68.564 116.145 68.573 115.989 68.573H113.271ZM113.271 72.875V69.707H116.214C116.334 69.707 116.469 69.71 116.619 69.716C116.775 69.722 116.919 69.74 117.051 69.77C117.459 69.83 117.789 69.998 118.041 70.274C118.293 70.544 118.419 70.892 118.419 71.318C118.419 71.642 118.335 71.942 118.167 72.218C118.005 72.488 117.747 72.668 117.393 72.758C117.243 72.8 117.072 72.83 116.88 72.848C116.688 72.866 116.529 72.875 116.403 72.875H113.271ZM124.361 74.27C126.059 74.27 127.292 73.643 128.06 72.389V74H129.239V67.961C129.239 67.601 129.221 67.247 129.185 66.899C129.149 66.551 129.071 66.236 128.951 65.954C128.693 65.324 128.252 64.844 127.628 64.514C127.01 64.178 126.257 64.01 125.369 64.01C124.301 64.01 123.431 64.25 122.759 64.73C122.087 65.21 121.637 65.885 121.409 66.755L122.696 67.133C122.882 66.485 123.203 66.011 123.659 65.711C124.121 65.411 124.685 65.261 125.351 65.261C126.275 65.261 126.935 65.477 127.331 65.909C127.727 66.335 127.931 66.986 127.943 67.862C127.511 67.922 127.034 67.985 126.512 68.051C125.996 68.117 125.477 68.192 124.955 68.276C124.433 68.36 123.953 68.456 123.515 68.564C122.789 68.756 122.195 69.077 121.733 69.527C121.271 69.971 121.04 70.592 121.04 71.39C121.04 71.906 121.163 72.383 121.409 72.821C121.655 73.259 122.024 73.61 122.516 73.874C123.014 74.138 123.629 74.27 124.361 74.27ZM124.514 73.127C123.992 73.127 123.572 73.043 123.254 72.875C122.942 72.701 122.714 72.482 122.57 72.218C122.432 71.948 122.363 71.672 122.363 71.39C122.363 70.862 122.54 70.466 122.894 70.202C123.248 69.938 123.632 69.746 124.046 69.626C124.58 69.482 125.201 69.365 125.909 69.275C126.617 69.185 127.289 69.101 127.925 69.023C127.925 69.245 127.916 69.5 127.898 69.788C127.886 70.07 127.853 70.331 127.799 70.571C127.673 71.303 127.325 71.912 126.755 72.398C126.191 72.884 125.444 73.127 124.514 73.127ZM131.573 78.32H132.905V72.839C133.253 73.283 133.682 73.634 134.192 73.892C134.702 74.144 135.287 74.27 135.947 74.27C136.859 74.27 137.636 74.045 138.278 73.595C138.92 73.139 139.409 72.524 139.745 71.75C140.087 70.976 140.258 70.103 140.258 69.131C140.258 68.165 140.087 67.295 139.745 66.521C139.409 65.747 138.923 65.135 138.287 64.685C137.651 64.235 136.889 64.01 136.001 64.01C135.281 64.01 134.648 64.154 134.102 64.442C133.562 64.724 133.115 65.117 132.761 65.621V64.28H131.573V78.32ZM135.812 73.037C135.122 73.037 134.552 72.869 134.102 72.533C133.652 72.191 133.316 71.726 133.094 71.138C132.872 70.55 132.761 69.881 132.761 69.131C132.761 67.985 133.01 67.052 133.508 66.332C134.012 65.606 134.771 65.243 135.785 65.243C136.481 65.243 137.054 65.414 137.504 65.756C137.96 66.098 138.299 66.563 138.521 67.151C138.743 67.739 138.854 68.399 138.854 69.131C138.854 69.869 138.74 70.532 138.512 71.12C138.29 71.708 137.954 72.176 137.504 72.524C137.054 72.866 136.49 73.037 135.812 73.037ZM144.872 74H146.195V65.504H149.642V64.28H141.425V65.504H144.872V74ZM159.08 64.28H157.973L152.636 71.786V64.28H151.349V74H152.465L157.793 66.431V74H159.08V64.28ZM161.597 78.32H162.929V72.839C163.277 73.283 163.706 73.634 164.216 73.892C164.726 74.144 165.311 74.27 165.971 74.27C166.883 74.27 167.66 74.045 168.302 73.595C168.944 73.139 169.433 72.524 169.769 71.75C170.111 70.976 170.282 70.103 170.282 69.131C170.282 68.165 170.111 67.295 169.769 66.521C169.433 65.747 168.947 65.135 168.311 64.685C167.675 64.235 166.913 64.01 166.025 64.01C165.305 64.01 164.672 64.154 164.126 64.442C163.586 64.724 163.139 65.117 162.785 65.621V64.28H161.597V78.32ZM165.836 73.037C165.146 73.037 164.576 72.869 164.126 72.533C163.676 72.191 163.34 71.726 163.118 71.138C162.896 70.55 162.785 69.881 162.785 69.131C162.785 67.985 163.034 67.052 163.532 66.332C164.036 65.606 164.795 65.243 165.809 65.243C166.505 65.243 167.078 65.414 167.528 65.756C167.984 66.098 168.323 66.563 168.545 67.151C168.767 67.739 168.878 68.399 168.878 69.131C168.878 69.869 168.764 70.532 168.536 71.12C168.314 71.708 167.978 72.176 167.528 72.524C167.078 72.866 166.514 73.037 165.836 73.037Z" fill="#111111"/>
<defs>
<linearGradient id="paint0_linear_1_2275" x1="35.04" y1="51.9958" x2="44.9618" y2="51.9421" gradientUnits="userSpaceOnUse">
<stop stop-color="#FF7A00"/>
<stop offset="1" stop-color="#FFB039"/>
</linearGradient>
<linearGradient id="paint1_linear_1_2275" x1="33.7773" y1="33.5288" x2="46.225" y2="33.4786" gradientUnits="userSpaceOnUse">
<stop stop-color="#FF7A00"/>
<stop offset="1" stop-color="#FFB039"/>
</linearGradient>
<clipPath id="clip0_1_2275">
<rect width="80" height="80" fill="white"/>
</clipPath>
</defs>
</svg>
